<svg xmlns="http://www.w3.org/2000/svg" viewBox="1469 -2041 980 980">
  <defs>
    <style>
      .cls-1 {
        fill: rgba(255,255,255,0.8);
      }
    </style>
  </defs>
  <g id="button" transform="translate(1459 -2051)">
    <path id="Path_13" data-name="Path 13" class="cls-1" d="M500,990A490.095,490.095,0,0,1,309.2,48.6,490.068,490.068,0,0,1,690.8,951.4,486.993,486.993,0,0,1,500,990Zm0-912.6C267,77.4,77.4,267,77.4,500S267,922.6,500,922.6,922.6,733,922.6,500,733,77.4,500,77.4Z"/>
    <path id="Path_14" data-name="Path 14" class="cls-1" d="M781.3,533.7H215a33.7,33.7,0,0,1,0-67.4H781.3a33.7,33.7,0,1,1,0,67.4Z"/>
    <path id="Path_15" data-name="Path 15" class="cls-1" d="M498.2,816.9a33.715,33.715,0,0,1-33.7-33.7V216.9a33.7,33.7,0,0,1,67.4,0V783.2A33.715,33.715,0,0,1,498.2,816.9Z"/>
  </g>
</svg>
