<svg id="Group_2" data-name="Group 2" xmlns="http://www.w3.org/2000/svg" viewBox="-22851 -23650 611.98 611.941">
  <defs>
    <style>
      .cls-1 {
        fill: #fff;
      }
    </style>
  </defs>
  <path id="Path_5" data-name="Path 5" class="cls-1" d="M91.226,414.833h31.025l50.421-50.42H116.446V232.852H219.127a25.408,25.408,0,0,0,17.884-7.439L353.652,107.975v75.478l50.421-50.421V46.844a25.269,25.269,0,0,0-43.146-17.781L208.582,182.431H91.226a25.147,25.147,0,0,0-25.2,25.2V389.612A25.163,25.163,0,0,0,91.226,414.833Z" transform="translate(-22851 -23650.02)"/>
  <path id="Path_6" data-name="Path 6" class="cls-1" d="M353.652,489.411l-78.1-78.176L239.913,446.88,360.989,568.2a25.245,25.245,0,0,0,17.884,7.379,24.4,24.4,0,0,0,9.605-1.922,25.277,25.277,0,0,0,15.615-23.3V282.741l-50.421,50.422V489.411Z" transform="translate(-22851 -23650.02)"/>
  <path id="Path_7" data-name="Path 7" class="cls-1" d="M603.855,8.093a27.831,27.831,0,0,0-39.2,0L404.073,168.7l-50.421,50.421-145.336,145.3-50.421,50.42L8.124,564.646a27.711,27.711,0,1,0,39.18,39.2L222.091,429.058,257.8,393.372,353.652,297.5l50.421-50.421,199.782-199.8A27.68,27.68,0,0,0,603.855,8.093Z" transform="translate(-22851 -23650.02)"/>
</svg>
