<svg id="Group_1" data-name="Group 1" xmlns="http://www.w3.org/2000/svg" viewBox="-24827 -24819 612 466.285">
  <defs>
    <style>
      .cls-1 {
        fill: #fff;
      }
    </style>
  </defs>
  <path id="Path_1" data-name="Path 1" class="cls-1" d="M91.071,399.257l229.5,139.886V72.857L91.071,212.742h-60.7C0,212.743,0,243.838,0,243.838V368.191s0,31.1,30.367,31.1H91.072v-.029ZM29.143,241.944H90.984l200.445-110.8V480.857L90.984,367.7H29.143Z" transform="translate(-24827 -24891.857)"/>
  <path id="Path_2" data-name="Path 2" class="cls-1" d="M349.714,419.337v32.377S437.143,415.49,437.143,306s-87.429-145.714-87.429-145.714v32.378S408,217.377,408,306,349.714,419.337,349.714,419.337Z" transform="translate(-24827 -24891.857)"/>
  <path id="Path_3" data-name="Path 3" class="cls-1" d="M524.571,471.531V510S612,468.063,612,306s-87.429-204-87.429-204v37.828S582.857,172,582.857,306,524.571,471.531,524.571,471.531Z" transform="translate(-24827 -24891.857)"/>
  <path id="Path_4" data-name="Path 4" class="cls-1" d="M437.143,443.962v36.9S524.572,432.772,524.572,306s-87.429-174.857-87.429-174.857v35.67S495.429,204.729,495.429,306,437.143,443.962,437.143,443.962Z" transform="translate(-24827 -24891.857)"/>
</svg>
