<svg xmlns="http://www.w3.org/2000/svg" viewBox="-122 -4662 442 442">
  <defs>
    <style>
      .cls-1, .cls-2 {
        fill: #fff;
      }

      .cls-1 {
        stroke: #707070;
      }

      .cls-3 {
        fill: rgba(0,0,0,0);
        stroke: #000;
        stroke-width: 2px;
      }

      .cls-4 {
        stroke: none;
      }

      .cls-5 {
        fill: none;
      }
    </style>
  </defs>
  <g id="_5" data-name="5" transform="translate(525 -112)">
    <g id="_5-2" data-name="5" transform="translate(269 -585)">
      <g id="Ellipse_2" data-name="Ellipse 2" class="cls-1" transform="translate(-880 -3927)">
        <circle class="cls-4" cx="50.5" cy="50.5" r="50.5"/>
        <circle class="cls-5" cx="50.5" cy="50.5" r="50"/>
      </g>
      <circle id="Ellipse_3" data-name="Ellipse 3" class="cls-2" cx="50.5" cy="50.5" r="50.5" transform="translate(-880 -3927)"/>
      <circle id="Ellipse_4" data-name="Ellipse 4" cx="50.5" cy="50.5" r="50.5" transform="translate(-880 -3927)"/>
      <circle id="Ellipse_5" data-name="Ellipse 5" cx="50.5" cy="50.5" r="50.5" transform="translate(-610 -3927)"/>
      <circle id="Ellipse_6" data-name="Ellipse 6" cx="50.5" cy="50.5" r="50.5" transform="translate(-745 -3793)"/>
      <circle id="Ellipse_7" data-name="Ellipse 7" cx="50.5" cy="50.5" r="50.5" transform="translate(-880 -3661)"/>
      <circle id="Ellipse_8" data-name="Ellipse 8" cx="50.5" cy="50.5" r="50.5" transform="translate(-610 -3661)"/>
      <circle id="Ellipse_9" data-name="Ellipse 9" cx="50.5" cy="50.5" r="50.5" transform="translate(-880 -3927)"/>
    </g>
    <path id="Path_7" data-name="Path 7" class="cls-3" d="M74.5,36A38.5,38.5,0,0,0,36,74.5v363A38.5,38.5,0,0,0,74.5,476h363A38.5,38.5,0,0,0,476,437.5V74.5A38.5,38.5,0,0,0,437.5,36Zm48.97,36.03a50,50,0,1,1-36.3,14.11,50,50,0,0,1,36.3-14.11Zm268,0a50,50,0,1,1-36.3,14.11A50,50,0,0,1,391.47,72.03ZM256,206a50,50,0,1,1-50,50A50,50,0,0,1,256,206ZM123.47,340.03a50,50,0,1,1-36.3,14.11,50,50,0,0,1,36.3-14.11Zm268,0a50,50,0,1,1-36.3,14.11A50,50,0,0,1,391.47,340.03Z" transform="translate(-682 -4585)"/>
  </g>
</svg>
