<svg id="_6" data-name="6" xmlns="http://www.w3.org/2000/svg" viewBox="1007 -5192 442 442">
  <defs>
    <style>
      .cls-1 {
        fill: rgba(255,255,255,0);
        stroke: #000;
        stroke-width: 2px;
      }
    </style>
  </defs>
  <circle id="Ellipse_5" data-name="Ellipse 5" cx="50.5" cy="50.5" r="50.5" transform="translate(1308 -4884)"/>
  <circle id="Ellipse_5-2" data-name="Ellipse 5" cx="50.5" cy="50.5" r="50.5" transform="translate(1043 -4884)"/>
  <circle id="Ellipse_5-3" data-name="Ellipse 5" cx="50.5" cy="50.5" r="50.5" transform="translate(1043 -5022)"/>
  <circle id="Ellipse_5-4" data-name="Ellipse 5" cx="50.5" cy="50.5" r="50.5" transform="translate(1308 -5022)"/>
  <circle id="Ellipse_5-5" data-name="Ellipse 5" cx="50.5" cy="50.5" r="50.5" transform="translate(1308 -5160)"/>
  <circle id="Ellipse_5-6" data-name="Ellipse 5" cx="50.5" cy="50.5" r="50.5" transform="translate(1043 -5160)"/>
  <path id="Path_8" data-name="Path 8" class="cls-1" d="M74.5,36A38.5,38.5,0,0,0,36,74.5v363A38.5,38.5,0,0,0,74.5,476h363A38.5,38.5,0,0,0,476,437.5V74.5A38.5,38.5,0,0,0,437.5,36Z" transform="translate(972 -5227)"/>
</svg>
