<svg id="Group_13" data-name="Group 13" xmlns="http://www.w3.org/2000/svg" viewBox="-837.18 -4003 400.18 415.369">
  <defs>
    <style>
      .cls-1 {
        fill: #fff;
      }

      .cls-2 {
        fill: #5dacb8;
      }
    </style>
  </defs>
  <path id="Path_10" data-name="Path 10" class="cls-1" d="M-576.957-3776.446l95.974-45.755,16.74,129.453-73.654,58.031-31.247-21.2Z"/>
  <path id="Path_9" data-name="Path 9" class="cls-1" d="M-723.156-3926.261l108.5-46.287,90.169,91.371-97.984,52.3-107.3-77.545Z" transform="translate(-4113.878 -1688.019) rotate(68)"/>
  <path id="Path_8" data-name="Path 8" class="cls-1" d="M-723.156-3926.261l108.5-46.287,90.169,91.371-97.984,52.3-107.3-77.545Z"/>
  <path id="Path_7" data-name="Path 7" class="cls-2" d="M256,45c-6.176,0-12.216,1.232-17,4L86,137c-9.57,5.536-9.57,14.464,0,20l153,88c9.57,5.536,24.431,5.536,34,0l153-88c9.57-5.535,9.57-14.465,0-20L273,49C268.215,46.23,262.175,45,256,45Zm-1,53c9.013.1,16.807,1.97,24,6,4.92,2.758,8.477,6.465,10,10,1.473,3.507,1.3,7.265,0,13l-1,6c-1.06,4.083-1.62,7.21-1,9,.57,1.764,1.741,2.734,4,4l4,2-34,19-3-2c-4.118-2.306-6.861-5.092-8-8-1.188-2.935-1.584-7.6,0-14l2-6a13.463,13.463,0,0,0,0-8,7.632,7.632,0,0,0-4-5,21.894,21.894,0,0,0-13-3c-4.956.526-9.722,3.043-15,6-4.972,2.785-9.937,5.812-14,10a60.219,60.219,0,0,0-10,14l-24-13a170.313,170.313,0,0,1,16-14,127.841,127.841,0,0,1,16-11c14.976-8.39,29.123-13.413,42-15C249.208,97.6,251.995,97.967,255,98Zm51,57,27,15-34,18-27-15ZM76,174c-5.753-.155-10,4.056-10,12V344c0,11.052,7.43,24.473,17,30l147,84c9.57,5.526,17,1.051,17-10V291c0-11.052-7.43-24.472-17-30L83,176A13.567,13.567,0,0,0,76,174Zm360,0a13.572,13.572,0,0,0-7,2L282,261c-9.57,5.527-17,18.948-17,30V448c0,11.05,7.43,15.528,17,10l147-84c9.57-5.527,17-18.948,17-30V186C446,178.058,441.754,173.846,436,174ZM115,238a130.534,130.534,0,0,1,18,5,101.312,101.312,0,0,1,16,7c13.213,7.63,23.068,16.242,30,26a51.854,51.854,0,0,1,10,31c0,5.64-.887,9.73-3,13a25.43,25.43,0,0,1-11,9l-5,1a15.706,15.706,0,0,0-7,5,9.518,9.518,0,0,0-2,6v4l-29-17v-4c0-4.72.212-8.406,2-11,1.787-2.652,6.26-5.673,12-8l5-2c3.087-1.21,5.592-2.165,7-4a11.087,11.087,0,0,0,2-7,21.326,21.326,0,0,0-4-12c-2.6-3.8-6.342-6.31-11-9-4.387-2.532-8.909-5.018-14-6-5.09-1.04-10.476-.609-16,0Zm269,8a23.789,23.789,0,0,1,5,1c6.932,1.7,10,8.006,10,19a48.407,48.407,0,0,1-3,17c-2.112,5.65-5.91,11.939-11,20l-5,8a79,79,0,0,0-7,13,21.63,21.63,0,0,0-2,8v4l-29,17v-4c0-4.72.214-9.343,2-14,1.79-4.715,6.26-12.046,12-21l5-8c3.087-4.776,5.592-8.54,7-12a22.851,22.851,0,0,0,2-9c0-4.028-1.4-7.256-4-8-2.6-.8-6.343.312-11,3a74.028,74.028,0,0,0-14,11,174.93,174.93,0,0,0-16,18V282c6.553-6.2,12.586-11.722,18-16a116.575,116.575,0,0,1,15-10C368.738,249.8,377.41,246.005,384,246ZM132,341l29,17v30l-29-17Zm239,8v31l-29,16V366Z" transform="translate(-883 -4048)"/>
</svg>
